<svg xmlns="http://www.w3.org/2000/svg" xmlns:xlink="http://www.w3.org/1999/xlink" version="1.1" x="0px" y="0px" viewBox="0 0 100 125" style="enable-background:new 0 0 100 100;" xml:space="preserve"><path d="M74.1,18c-1.6,0.3-2.3-0.4-2.9-1.4c-0.6-1.1-1.5-1.9-2.6-2.5c-0.8-0.4-1.6-0.8-2.4-0.6c-1.3,0.2-2.2-0.2-2.8-1.4  c-0.3-0.7-0.8-1.3-1.5-1.8c-0.5-0.3-1-0.6-1.6-0.6c-0.4,0-0.8-0.1-0.8-0.5c0-0.5,0.2-0.9,0.7-1c1.1-0.3,2.2-0.2,3.3-0.3  c4.4-0.2,8.8-0.4,13.3-0.3c0.7,0,1.5-0.2,2.3-0.1c1.6,0.1,2.4-0.8,2.9-2.1c0.3-0.9,0.9-1.4,1.8-1.7c0.7-0.2,1.1,0.2,1,1  c0,0.4-0.2,0.7-0.4,1c-0.3,0.5-0.6,1-1,1.5c-0.7,1-0.7,1.8-0.2,2.9c1.4,2.8,2.8,5.6,3.9,8.6c0.5,1.4,1.3,2.6,2.1,3.8  c0.3,0.5,0.5,1,0.8,1.5c0.1,0.3,0.2,0.7-0.1,1c-0.3,0.3-0.7,0.1-1-0.1c-0.4-0.3-0.9-0.6-1.2-0.9c-0.6-0.6-1.3-0.8-2.1-0.7  c-1.1,0.1-2.2,0-2.9-1.1c-0.4-0.6-1.1-0.9-1.9-0.8c-1,0.1-1.7-0.5-2.2-1.3c-0.2-0.3-0.4-0.6-0.6-0.9c-0.9-1-1.4-0.9-2.2,0.2  c-1.5,2.3-3,4.5-4.5,6.8c-0.2,0.3-0.5,0.6-0.4,1c1.1,0.3,2.2,0.6,3.3,0.8c1.3,0.2,2,1.3,3,2c0.2,0.1,0.2,0.4,0.1,0.5  c-0.7,1.6-0.4,3.4-0.5,5.1c-0.2,3.6-2.1,6-4.8,7.9c-1.6,1.2-3.3,2.4-4.9,3.6c-2.5,1.9-3.9,4.6-4.8,7.7c-0.7,2.6-1.6,5.1-3,7.4  c-0.7,1.2-1.7,2.2-3,2.9c-0.9,0.4-1.8,0.8-1.7,2c0,0.3-0.3,0.6-0.5,0.7c-0.7,0.4-0.8,0.9-0.8,1.6c0,3.4-0.2,6.8,0.1,10.2  c0.2,2.1,0.4,4.2,0.8,6.3c0.2,0.8,0.4,1.2,1.4,1.1c2.5-0.1,4.9,0.5,7.3,0.9c1.2,0.2,2.2,0.9,2.9,1.8c1.3,1.7,0.6,3.4-0.9,4.4  c-1.9,1.3-4,2-6.4,2c-3.6,0.1-7.1,0.2-10.7,0.4c-2.5,0.1-4.9-0.7-7.3-1.2c-2.1-0.4-3.6-3.2-2-5.6c0.1-0.2,0.4-0.3,0.6-0.5  c1.7-1.2,3.5-1.6,5.5-1.9c1.4-0.2,2.9-0.3,4.4-0.3c0.6,0,1-0.1,1.1-0.9c0.2-1.4,0.5-2.8,0.4-4.2c-0.1-1.8,0-3.5-0.1-5.3  c-0.1-1.4-0.1-2.8-0.3-4.2c-0.1-1.4-0.1-2.7-0.2-4.1c-1.1-0.1-1.8-0.6-1.8-1.8c0-0.6-0.5-1-1.1-1c-0.6,0-0.9-0.3-1.2-0.8  c-0.5-0.9-1.5-1.4-2-2.3c-0.9-1.6-1.6-3.2-2-5c-0.5-2.2-1.3-4.2-2.4-6.1c-0.8-1.4-1.9-2.5-3.2-3.6c-2.2-1.8-4.3-3.7-6.4-5.5  c-1.5-1.3-2.2-3.1-2.8-4.9c-0.1-0.5-0.2-1-0.7-1.5c-0.4,0.8-0.5,1.6-0.6,2.4c-0.4,2.1-0.7,4.3-1,6.4c-0.2,1-0.2,1.2-1.5,1.1  c-2.5-0.3-4.6-1.5-6.5-3.2c-1.5-1.4-2.9-2.8-3.8-4.6c-1.1-2.2-2.1-4.4-1.6-6.9c0.1-0.6,0.1-1.3,0.1-2c0-0.8,0.1-1.5,0.5-2.2  c0.9-1.7,1.5-3.5,2.7-5c0.8-1,1.7-1.9,2.8-2.5c2.5-1.6,5.2-2.7,8.1-3c2.4-0.2,4.5,0.2,6.6,1.4c2.8,1.6,4.7,3.8,6.3,6.6  c0.4,0.7,1.3,1,1.4,2c0,0.4,0.6,0.2,0.9,0.2c2.2,0.1,4.3,0,6.5-0.3c2.5-0.3,5-0.1,7.5,0.1c1.4,0.1,2.7-0.2,4.1,0  c1.3,0.1,2.5,0.2,3.7,0.4c1.6,0.3,3.2,0,4.8,0.3c0.7,0.1,1.2-0.2,1.5-0.8C70.5,23.6,72.2,21,74.1,18z M62.5,47.5L62.5,47.5  c-0.1-0.5,0.2-0.6,0.6-0.8c0.7-0.3,1.5-0.4,2.2-1.2c-2,0.3-3.8,0.2-5.6,0.6c-1,0.2-1.5,0.6-2,1.3c-1.9,2.8-3.8,5.5-5.5,8.5  c-0.5,0.9-1.1,1.7-1.8,2.4c-0.8,0.9-1.5,0.7-1.7-0.5c-0.1-0.5-0.3-0.7-0.8-0.7c-0.3,0-0.6,0.1-0.8-0.2c0.3-0.3,0.7-0.2,1-0.2  c0.4,0,0.6-0.1,0.9-0.5c0.9-1.5,1.8-3,2.7-4.4c1.1-1.7,2.1-3.3,3.2-4.9c0.1-0.2,0.3-0.4,0.1-0.7c-0.2-0.2-0.4-0.1-0.6,0  c-1.6,0.2-3.2,0.4-4.8,0.2c-2.2-0.3-4.4,0.2-6.7-0.3c-3-0.6-6.1-0.8-9.2-1.6c0.8,0.8,1.4,2,2.9,1.8c0.2,0,0.3,0.1,0.3,0.4  c0,1,0.2,1.1,0.9,1c1.7-0.3,3.3,0,4.9,0.6c-1.5,0-3-0.1-4.4-0.1c0,0.1,0,0.2-0.1,0.3c1,0.8,2.4,0.3,3.6,0.7  c-0.8,0.2-1.5,0.4-2.4,0.6c0.3,0.5,0.4,0.9,0.7,1.3c1,1.8,1.8,3.6,2.3,5.5c0.2,0.8,0.4,1.7,0.7,2.5c0.7,2.1,1.8,3.9,3.7,5.2  c0.4,0.3,0.8,0.5,1.3,0.4c1,0,1.9,0.2,2.8,0.5c0.6,0.2,1.3,0.1,1.9,0.1c1.7-0.1,2.9-1.3,4.2-2.2l-0.1,0c1-0.3,1.5-1.1,1.8-1.9  c1.1-2.7,2.1-5.3,3-8c0.7-1.9,1.8-3.6,3.1-5.1c0.4-0.4,0.8-0.8,0.9-1.4C64.5,46.3,63.5,46.9,62.5,47.5z M39.2,32.2  c0-0.2,0.1-0.4,0.1-0.6c0.3-1.3-0.3-2.5-0.7-3.7c-1-3-2.3-5.6-4.8-7.7c-1.5-1.3-3.1-2.1-4.9-2.5c-2.2-0.5-4.4-0.1-6.5,0.5  c-3.1,0.8-5.8,2.3-7.5,5.2c-1.3,2.2-2.1,4.5-2.5,7.1c-0.3,2.1,0.2,4.1,1.1,6c0.9,2,2.3,3.5,3.8,5c1.4,1.4,3,2.4,4.8,3  c1.1,0.4,1.4,0.2,1.8-0.9c0.1-0.1,0.1-0.3,0.1-0.4c0.2-1.7,0.6-3.5,0.9-5.2c0.1-0.3,0.2-0.7-0.3-0.9c-0.4,0.2-0.7,0.4-0.5,1  c0.1,0.3-1.1,1.2-1.4,1.1c-0.2-0.1-0.3-0.3-0.2-0.5c0.3-0.6,0.7-1.1,1-1.7c0.2-0.3,0.4-0.6,0.1-0.9c-0.4-0.4-0.7-0.3-1.1,0  c-0.6,0.5-1.3,1-1.9,1.5c-0.5,0.4-1,0.8-1.8,0.3c1.2-0.3,0.9-2.3,2.6-2c0.3,0,0.7-0.4,1-0.7c0.1-0.1,0.1-0.3,0.1-0.4  c-0.1-0.2-0.3-0.4-0.5-0.4c-0.2,0-0.5,0.1-0.7,0.2c-0.7,0.3-1.5,0.6-2.2,0.9c-0.2,0.1-0.4,0.1-0.5-0.1c-0.1-0.2-0.1-0.4,0.1-0.5  c0.2-0.2,0.5-0.3,0.8-0.4c0.6-0.3,1.2-0.5,1.8-0.7c0.6-0.3,0.6-0.8,0.4-1.3c-0.1-0.6-0.6-0.4-1-0.4c-1,0.2-2.1,0.4-3.1,0.7  c-0.5,0.1-0.6-0.1-0.6-0.5c0-0.6,0.2-0.9,0.8-0.7c0.2,0.1,0.4,0.1,0.6,0.1c0.7-0.1,1.7,0.5,1.8-0.9c0-0.2,0.4-0.1,0.6,0.1  c0.2,0.2,0.3,0.5,0.6,0.3c0.3-0.2,0.5-0.7,0.5-1.1c0-0.4-0.4-0.4-0.7-0.4c-0.8-0.1-1.6-0.2-2.4-0.3c-0.6-0.1-1.2-0.3-1.7-0.8  c0.7-0.6,1.3-0.2,1.8,0c0.9,0.3,1.9,0.3,2.8,0.6c0.3,0.1,0.6,0.1,0.8-0.2c0.1-0.3,0.4-0.5,0.1-0.8c-0.2-0.2-0.5-0.6-0.8,0  c-0.1,0.2-0.3,0-0.4-0.2c-0.3-1-1-1.7-1.8-2.3c-0.4-0.3-0.9-0.6-0.8-1.2c0.5-0.1,0.7,0.2,1,0.4c0.9,0.8,1.9,1.7,2.8,2.5  c0.2,0.2,0.4,0.4,0.8,0.2c0.2-0.1,0.3-0.2,0.3-0.5c0-0.4-0.3-0.5-0.6-0.5c-0.5,0-0.9-0.3-0.9-0.6c-0.1-0.7,0.1-1.3-1-1.1  c0,0-0.1-0.2-0.1-0.2c0.6-0.6-0.1-1-0.2-1.4c-0.1-0.3-0.3-0.6,0.1-0.8c0.4-0.2,0.5,0.2,0.7,0.4c0.8,1.1,1.5,2.2,2.3,3.4  c0.2,0.3,0.4,0.5,0.7,0.4c0.4-0.1,0.4-0.4,0.3-0.8c-0.2-1.1-0.4-2.2-0.9-3.2c-0.1-0.3-0.3-0.5,0-0.8c0.4,0.1,0.5,0.6,0.6,0.9  c0.1,0.5,0.3,1.1,0.7,1.3c0.5,0.4,0.6,0.6,0.3,1.2c-0.2,0.5,0.1,0.7,0.6,0.8C27,26,27,25.7,27,25.3c-0.1-0.9,0-1.8,0.1-2.7  c0-0.3,0.2-0.6,0.6-0.5c0.3,0.1,0.3,0.4,0.2,0.6c-0.1,0.8-0.5,1.7,0.5,2.2c-0.2,0.4-1,0-0.8,0.7c0.1,0.4,0.6,0.4,0.9,0.4  c0.4,0,0.4-0.3,0.5-0.6c0.3-0.8,0.6-1.6,0.9-2.4c0.1-0.2,0.4-0.4,0.6-0.3c0.3,0.1,0.4,0.4,0.2,0.6c-0.5,0.8,0.1,1.8-0.8,2.5  c-0.2,0.2,0,0.6,0.3,0.7c0.3,0.2,0.4,0,0.7-0.2c0.5-0.5,0.4-1,0.2-1.9c0.7,0.3,1.2,0.4,1.7,0.1c0.2-0.1,0.5-0.1,0.7,0.2  c0.1,0.3,0,0.5-0.3,0.6c-0.8,0.3-1,1.1-1.5,1.6c-0.5,0.5-0.2,0.8,0.3,1c0.5,0.2,1,0.4,1.2-0.4c0.1-0.3,0.3-0.4,0.6-0.3  c0.6,0.3,1.2,0.3,1.8,0.4c0.2,0,0.4,0.1,0.4,0.4c0,0.3-0.2,0.4-0.4,0.5c-1,0.2-2.1,0.3-3.1,0.5c0,0.2,0,0.3,0,0.4  c0,1.4,0,1.4,1.3,1.7C35.5,31.5,37.3,31.8,39.2,32.2z M27.9,31c0.6,1.1,1.3,1.6,2.1,1.8c2.8,0.8,5.5,1.9,8.4,2.3  c3.4,0.4,6.9,0.5,10.4,0.9c2.9,0.4,5.8-0.2,8.7-0.2c1.7,0,3.5-0.3,5.2-0.8c0.4-0.1,0.9-0.2,1.1-0.7c1.1-1.8,2.4-3.6,3.3-5.6  c-1.1-0.7-2.4-0.8-3.5-0.7c-2.3,0.2-4.6,0-6.9-0.2c-1.7-0.2-3.5-0.5-5.2-0.4c-2.5,0.2-4.9-0.1-7.4,0c-0.6,0-1.1,0-1.6,0.2  c-0.8,0.2-2-0.4-2.3,0.5c-0.3,0.8,0,1.8,0.2,2.7c0.2,0.7,0,1.4-0.2,2.1c-0.1,0.6-0.4,0.8-1,0.6c-1.9-0.7-3.9-1-5.8-1.5  C31.6,31.6,29.9,31.1,27.9,31z M55.1,88c-0.2,0.5,0.1,0.8,0.3,1.1c0.2,0.4,0.6,0.7,0.6,1.2c0,0.3,0.1,0.7-0.2,0.8  c-0.3,0.2-0.6-0.1-0.7-0.4c-0.6-1.1-1.2-2.2-1.5-3.4c-1.1-4.5-1-9.2-1.3-13.8c-0.1-1.5,0-3,0-4.5c0-0.4-0.1-0.7-0.6-0.6  c-0.5,0-0.5,0.3-0.5,0.7c0.2,1.8-0.1,3.6,0.1,5.4c0.3,3.6,0.2,7.1,0,10.7c-0.1,1.5-0.6,2.9-1.4,4.3c-0.2,0.4-0.4,0.9-1,1  c-0.6-0.9,0.7-1.4,0.3-2.4c-1.9,0.2-3.9,0.4-5.9,0.6c-0.8,0.1-1.5,0.3-2.2,0.6c-0.7,0.3-1.2,0.7-1.6,1.3c-0.8,1.3-0.6,2.4,0.8,2.9  c1.8,0.7,3.7,1.3,5.7,1.5c2.1,0.2,4.3,0.3,6.5,0.1c2.9-0.2,5.9-0.4,8.8-1c0.9-0.2,1.7-0.5,2.4-1.1c1.5-1.2,1.3-2.4-0.3-3.5  c-2-1.3-4.2-1.4-6.3-1.7C56.4,88,55.7,87.7,55.1,88z M27.2,32.6c0.1,1,0.2,1.9,0.4,2.8c0.3,1.2,0.7,2.3,1,3.5  c0.3,1.1,1.1,1.9,1.9,2.7c0.3,0.3,0.5,0.3,0.9,0c0.6-0.6,1.5-0.9,2.3-1c2-0.4,4-0.7,6.1-0.8c4.1-0.1,8.1-0.3,12.2-0.3  c2.2,0,4.3,0,6.5,0.4c0.5,0.1,1.2,0.2,1.5-0.3c0.7-1,1.4-2.1,2.1-3.1c-0.4-0.3-0.8-0.2-1.1-0.1c-2.1,0.3-4.3,0.6-6.4,0.5  c-0.2,0-0.4,0-0.6,0c-4.9,0.1-9.7,0.3-14.6-0.7C35.2,35.4,31,34.6,27.2,32.6z M58.9,40.9c-2.5-0.6-5-0.5-7.4-0.6  c-3.4-0.1-6.8,0.3-10.2,0.3c-2.4,0-4.7,0.2-7,0.8c-0.3,0.1-0.7,0.1-0.8,0.7c0.8,0.3,1.7,0.5,2.5,0.9c0.6,0.3,0.9-0.1,1.4-0.2  c0.1,0.7,0.7,0.8,1.2,0.9c2.8,0.5,5.5,1.1,8.3,1.1c2.8,0,5.6-0.2,8.4,0c0.4,0,0.9,0.1,1.1-0.3C57.2,43.2,58.3,42.3,58.9,40.9z   M62.9,39.7c1.2,0.5,2.3,0.3,3.3,0.5c1.9,0.3,3.8,0.8,5.7,1.2c0.6,0.1,1,0,1.3-0.4c1.8-2.2,2.5-4.9,2.5-7.7c0-0.3-0.1-0.6-0.4-0.8  c-0.3,0.1-0.5,0.2-0.8,0.4c-1.9,1.1-3.8,2.1-6,2.2c-0.8,0.1-1.6,0.3-2.4,0.5c-0.4,0.1-0.8,0.1-1,0.5C64.5,37.3,63.7,38.4,62.9,39.7z   M66.5,34.4c2.2-0.7,4.2-1.1,6.1-1.9c0.8-0.3,1.7-0.7,2.4-1.3c0.8-0.7,0.8-1.1,0-1.7c-1-0.7-2.1-0.9-3.3-0.9  c-1.7-0.1-1.7-0.1-2.4,1.3c-0.2,0.3-0.4,0.6-0.5,0.9C68.2,32,67.1,32.9,66.5,34.4z M59.8,44.4c3.7,0.8,9.1-0.2,10.8-1.9  c-0.1-0.1-0.2-0.2-0.3-0.3c-2.5-1-5-1.2-7.6-1.3c-0.4,0-0.6,0.2-0.9,0.5C61.1,42.3,60.5,43.3,59.8,44.4z M78.3,9.8  c-3.2,1.2-6.5,1.7-9.6,3.2c0.9,1,2,1.6,2.8,2.6c0.5,0.7,0.9,0.7,1.6,0.1C74.9,13.8,76.7,11.9,78.3,9.8z M31.4,30.4  c-0.2-1.6-0.9-2.8-2.3-3.3c-1.5-0.6-3.1-0.1-4.5,0.6c-0.2,0.1-0.3,0.3-0.4,0.4c-0.7,1.1-1.3,2.4-1.6,3.7c-0.1,0.6-0.1,1.2,0.5,1.5  c0.7-0.9,0.3-1.9,0.6-2.9c0.3,0.7,0.4,1.5,0.9,2.2c0.6-0.8,1.5-1.4,1.5-2.5c0-0.4,0.4-0.6,0.7-0.6c1.3-0.1,2.6-0.5,3.7,0.6  C30.7,30.5,31,30.6,31.4,30.4z M83.4,21.5c-0.4-3.5-1.9-6.3-2.1-9.4c-0.9,2.7-0.5,5.5-1,8.3C81.6,20.3,82.4,20.8,83.4,21.5z   M50.2,56.5c2.5-3.3,5-6.7,7.2-10.3c-0.6-0.4-0.9-0.1-1.2,0.3c-0.8,1.1-1.6,2.2-2.3,3.3C52.5,52,51.2,54.1,50.2,56.5z M63.9,36.1  c-2.2,2.7-4.1,5.6-6.2,8.6c0.3-0.1,0.6,0,0.7-0.1C60.4,41.9,62.4,39.2,63.9,36.1z M69.7,26.9c1.4-1.3,5.3-7.4,5.6-8.9  C72.9,21,71.4,24,69.7,26.9z M25.2,35.9c0.2-1.1,0.5-2.1,0.3-3.3c-0.8,0.6-0.4,1.4-0.8,2.2c-0.4-0.7-0.4-1.5-1.2-1.9  C23.5,34.2,23.7,35.3,25.2,35.9z M53.7,66.5c-1.4,0-2.6-0.1-3.8-0.1c-0.2,0-0.6,0.1-0.5,0.4c0,0.2,0.2,0.5,0.5,0.5  c0.8,0,1.6,0.1,2.4,0C52.7,67.3,53.3,67.2,53.7,66.5z M81.5,8.2c1.4-1.5,1.9-2.4,1.8-3.5C82.5,5.8,81.5,6.6,81.5,8.2z M64.9,34.5  c1.2-1,1.9-2.3,2.4-3.7C66.3,31.9,65.4,33.1,64.9,34.5z M68.2,44.7c-0.8,0.2-1.7,0.1-2.4,0.6C66.7,46.1,66.7,46.1,68.2,44.7z"/><path d="M20,28.2c-0.4,0-0.5-0.3-0.5-0.6c0-0.3-0.2-0.8,0.4-0.8c0.4,0,0.4,0.4,0.3,0.7C20.1,27.7,20.3,28,20,28.2z"/><path d="M34.7,29c0.5,0.5,0.7,0.9,0.6,1.4c0,0.2-0.1,0.3-0.3,0.3c-0.2,0-0.3-0.1-0.3-0.2C34.7,30,34.7,29.7,34.7,29z"/><path d="M21.5,37.7c0-0.2,0.2-0.4,0.4-0.4c0.3,0,0.5,0.2,0.4,0.5c0,0.2-0.1,0.5-0.5,0.4C21.6,38.1,21.5,37.9,21.5,37.7z"/><path d="M17.9,33.7c0.1-0.2,0.2-0.3,0.4-0.3c0.2,0,0.3,0.1,0.3,0.3c0,0.2-0.1,0.4-0.4,0.3C18.1,34.1,18,33.9,17.9,33.7z"/><path d="M23.6,23.7c0.3,0.1,0.4,0.2,0.4,0.5c0,0.2-0.1,0.4-0.4,0.3c-0.2,0-0.3-0.2-0.3-0.4C23.3,23.9,23.3,23.7,23.6,23.7z"/><path d="M33.6,29.4c0.2,0,0.3,0.1,0.3,0.3c0,0.2-0.1,0.4-0.3,0.4c-0.1,0-0.3-0.1-0.3-0.3C33.2,29.5,33.3,29.4,33.6,29.4z"/><path d="M43.3,53c1.5,0,3.1-0.1,4.8-0.1c-0.6,0.6-1.2,0.4-1.8,0.4c-1,0.1-2,0.2-3,0.3c-0.8,0.1-1.2-0.2-1.3-1.1  c1.3-0.4,2.6-0.6,4-0.4C45.1,52.6,44,52.1,43.3,53z"/><path d="M49.2,48.2c-1.6,0.4-3.1,0.5-4.5-0.2c-0.3-0.1-0.4-0.3-0.3-0.6c0.1-0.2,0.3-0.3,0.5-0.1c0.6,0.3,1.2,0.2,1.8,0.2  C47.6,47.5,48.1,48.6,49.2,48.2z"/><path d="M47.6,55.9c-0.8,0-1.7-0.1-2.5,0c-0.5,0-1-0.1-1.4,0.4c-0.2,0.3-0.4,0.2-0.6,0c-0.2-0.2-0.3-0.4-0.3-0.7  c0-0.3,0.2-0.6,0.5-0.5C44.7,55.4,46.2,55.1,47.6,55.9z"/><path d="M54.3,60.5c0,0.3-0.2,0.4-0.5,0.4c-0.9,0.2-1.8,0.4-2.8,0.5c-1,0.1-2,0-3,0.1c-0.4,0-0.9,0.1-1.2-0.5  c1.4-0.4,2.6,0.4,3.8,0.2C51.8,61,53.1,60.8,54.3,60.5L54.3,60.5z"/><path d="M41.4,50.4c1.5-0.3,3-0.2,4.8-0.2c-0.9,0.8-1.7,0.4-2.4,0.4C42.9,50.7,42.1,51,41.4,50.4z"/><path d="M55.8,55.7c1.2-0.8,2.7-0.9,4-1.6c0.1-0.1,0.3,0.1,0.3,0.2c0,0.2,0,0.3-0.2,0.4C58.6,55.1,57.2,55.4,55.8,55.7z"/><path d="M54.3,57.5c0-0.2,0.1-0.4,0.4-0.4c1.6-0.1,3.2-0.5,4.8-0.8c-0.4,0.5-0.4,0.5-2.4,0.8C56.2,57.3,55.2,57.2,54.3,57.5  L54.3,57.5z"/><path d="M54.3,60.6c0.5-0.1,1.1-0.1,1.6-0.3c0.6-0.2,0.9,0.3,1.4,0.4C56.4,61,56.4,61,54.3,60.6C54.3,60.5,54.3,60.6,54.3,60.6z"/><path d="M63.4,48.1c-0.1,0.5-0.4,0.5-0.5,0.8c-0.1,0.4-0.4,0.5-0.9,0.5c-0.6,0-0.2-0.4-0.3-0.6c-0.4-0.4,0-0.3,0.2-0.4  C62.4,48.2,62.8,48.1,63.4,48.1z"/><path d="M49.4,63.7c-0.1-0.6-0.7-0.4-1.2-0.8c1.4,0.2,2.5-0.4,3.7-0.2l0,0C51.3,63.6,50.2,63.3,49.4,63.7L49.4,63.7z"/><path d="M58.3,51c1-0.4,2.1-0.8,3.2-0.6C60.5,50.9,59.4,51,58.3,51z"/><path d="M44.3,59.5c1-0.2,1.7-0.1,2.5,0C46,60,45.8,60,44.3,59.5z"/><path d="M46.8,50.2c0.8-0.8,1.8-0.5,2.7-0.7C48.8,50.1,47.8,49.9,46.8,50.2z"/><path d="M46.7,56.8c-0.8,0.5-1.4,0.6-2,0.6c-0.2,0-0.3-0.1-0.3-0.2c-0.1-0.2,0.1-0.3,0.2-0.3C45.1,56.7,45.8,56.5,46.7,56.8z"/><path d="M53.3,62.6c0.8-0.9,1.9-0.6,3-0.8C55.3,62.3,54.3,62.4,53.3,62.6C53.2,62.5,53.3,62.6,53.3,62.6z"/><path d="M52,62.8c-0.6-0.8-1.6,0-2.4-0.6c1.3-0.1,2.5,0,3.7,0.4c0,0,0,0,0,0C52.8,62.8,52.4,62.9,52,62.8C51.9,62.7,52,62.8,52,62.8  z"/><path d="M55.5,59.4c0-0.2,0-0.4,0.3-0.5c0.8-0.2,1.6-0.4,2.6-0.7C57.5,59.4,56.3,58.8,55.5,59.4L55.5,59.4z"/><path d="M59.3,52c-0.2,1-1,0.8-1.9,0.9C58,52.2,58.7,52.1,59.3,52z"/><path d="M55.5,59.4c-1.1,0.2-2.3,0.3-3.4,0.5l0,0C53.2,59.3,54.3,59,55.5,59.4C55.5,59.4,55.5,59.4,55.5,59.4z"/><path d="M54.3,57.5c-0.8,0.2-1.7-0.1-2.5,0C52.6,57.5,53.5,57.2,54.3,57.5C54.3,57.5,54.3,57.5,54.3,57.5z"/><path d="M47.7,51.9c0.3-0.4,0.6-0.4,1-0.3C48.5,52,48.1,52.1,47.7,51.9z"/><path d="M57.1,62.8c-0.3,0-0.6,0.1-0.6-0.4c0-0.2,0.3-0.3,0.5-0.2C57.5,62.4,57,62.7,57.1,62.8C57.1,62.9,57.1,62.8,57.1,62.8z"/><path d="M61.4,51.8c0.1,0,0.3,0.1,0.3,0.2c0,0.2-0.1,0.2-0.3,0.2c-0.1,0-0.2-0.1-0.2-0.1C61.1,52,61.2,51.9,61.4,51.8z"/><path d="M52.1,59.8c-0.5,0.2-1,0.2-1.5,0.1C51.1,59.6,51.6,59.7,52.1,59.8C52.1,59.9,52.1,59.8,52.1,59.8z"/><path d="M56.1,53.3c-0.3,0.2-0.6,0.4-0.9,0.4C55.4,53.3,55.7,53.2,56.1,53.3z"/><path d="M62.5,47.5c-0.4-0.2-0.8,0.3-1.4,0.1C61.6,47.1,62,47.2,62.5,47.5C62.5,47.5,62.5,47.5,62.5,47.5z"/><path d="M50.7,51.4c-0.1,0.2-0.3,0.2-0.5,0.1c-0.1,0-0.2-0.2-0.2-0.3c0.1-0.1,0.2-0.2,0.3-0.2C50.6,51,50.7,51.2,50.7,51.4z"/><path d="M49.4,63.7c-0.4,0.1-0.9,0.4-1.6,0.1C48.5,63.4,48.9,63.7,49.4,63.7C49.4,63.7,49.4,63.7,49.4,63.7z"/><path d="M51,43.2c-0.8,0.4-0.8,0.4-2.1,0.3C49.5,43,50.2,43.1,51,43.2z"/><path d="M45.5,43.5c0.7-0.3,1.4-0.1,2.1-0.1C47,44.2,46.2,43.2,45.5,43.5z"/><path d="M44.3,41.6c-0.9,0-1.7,0-2.8-0.1c1-0.4,1.9,0.1,2.7-0.2C44.3,41.4,44.3,41.5,44.3,41.6z"/><path d="M52.3,41.9c0.3-0.2,0.7-0.1,1,0c0.4,0.1,0.2,0.4,0.1,0.6c-0.1,0.2-0.3,0.3-0.4,0.1C52.8,42.2,52.3,42.3,52.3,41.9z"/><path d="M39.1,42.7c-0.2,0.3-0.5,0.5-0.7,0.3c-0.3-0.3,0.2-0.3,0.4-0.4C38.9,42.6,39,42.6,39.1,42.7z"/><path d="M51.4,42.6c0.2-0.2,0.5-0.1,0.7,0C51.9,42.8,51.6,42.8,51.4,42.6z"/><path d="M54.2,42.4c0.1,0,0.2-0.1,0.2-0.1c0.1,0,0.2,0.1,0.4,0.1c-0.1,0-0.1,0.1-0.2,0.1C54.5,42.5,54.4,42.5,54.2,42.4z"/><path d="M65.1,42.4c-0.8,0-1.7,0-2.5-0.1C63.4,42.1,64.2,41.5,65.1,42.4z"/><path d="M65.6,43.2c0.3-0.1,0.7-0.2,1.1-0.4c0.2,0.2,0,0.3-0.1,0.3C66.2,43.4,65.9,43.3,65.6,43.2z"/><path d="M68.3,43.1c-0.2,0-0.4-0.1-0.3-0.3c0-0.2,0.2-0.2,0.3-0.2c0.2,0,0.4,0.1,0.3,0.4C68.6,43,68.4,43,68.3,43.1z"/><path d="M27.6,28.3c-0.8,0-1.3,0.1-1.5,0.9c-0.1,0.3-0.4,0.6-0.8,0.4C25,29.5,24.7,29.4,25,29C25.5,28,26.2,27.8,27.6,28.3z"/><path d="M28.4,27.9c0.3-0.2,0.8-0.2,0.8,0.2c0,0.5-0.4,0-0.6,0.1C28.5,28.1,28.5,27.9,28.4,27.9z"/><text x="0" y="115" fill="#000000" font-size="5px" font-weight="bold" font-family="'Helvetica Neue', Helvetica, Arial-Unicode, Arial, Sans-serif">Created by Olga</text><text x="0" y="120" fill="#000000" font-size="5px" font-weight="bold" font-family="'Helvetica Neue', Helvetica, Arial-Unicode, Arial, Sans-serif">from the Noun Project</text></svg>